HIERARCHY
ROOT Hips
{
 OFFSET 0.000000 0.000000 0.000000
 CHANNELS 6 Xposition Yposition Zposition Yrotation Xrotation Zrotation
 JOINT Chest
 {
  OFFSET 0.000000 9.588913 -0.003946
  CHANNELS 3 Yrotation Xrotation Zrotation
  JOINT Chest2
  {
   OFFSET 0.000000 9.541882 0.008053
   CHANNELS 3 Yrotation Xrotation Zrotation
   JOINT Chest3
   {
    OFFSET 0.000000 9.501360 0.000000
    CHANNELS 3 Yrotation Xrotation Zrotation
    JOINT Chest4
    {
     OFFSET 0.000000 9.491660 0.000000
     CHANNELS 3 Yrotation Xrotation Zrotation
     JOINT Neck
     {
      OFFSET 0.000000 14.331917 0.000000
      CHANNELS 3 Yrotation Xrotation Zrotation
      JOINT Head
      {
       OFFSET 0.000000 8.884799 0.017034
       CHANNELS 3 Yrotation Xrotation Zrotation
       End Site
       {
        OFFSET 0.000000 16.896195 0.008993
       }
      }
     }
     JOINT RightCollar
     {
      OFFSET -2.923010 9.499495 0.000000
      CHANNELS 3 Yrotation Xrotation Zrotation
      JOINT RightShoulder
      {
       OFFSET -13.795216 0.000000 0.000000
       CHANNELS 3 Yrotation Xrotation Zrotation
       JOINT RightElbow
       {
        OFFSET -30.272209 0.000000 0.000000
        CHANNELS 3 Yrotation Xrotation Zrotation
        JOINT RightWrist
        {
         OFFSET -24.478199 0.000000 0.000000
         CHANNELS 3 Yrotation Xrotation Zrotation
         End Site
         {
          OFFSET -18.090752 0.000000 0.000000
         }
        }
       }
      }
     }
     JOINT LeftCollar
     {
      OFFSET 2.923010 9.499495 0.000000
      CHANNELS 3 Yrotation Xrotation Zrotation
      JOINT LeftShoulder
      {
       OFFSET 13.795216 0.000000 0.000000
       CHANNELS 3 Yrotation Xrotation Zrotation
       JOINT LeftElbow
       {
        OFFSET 30.272209 0.000000 0.000000
        CHANNELS 3 Yrotation Xrotation Zrotation
        JOINT LeftWrist
        {
         OFFSET 24.478199 0.000000 0.000000
         CHANNELS 3 Yrotation Xrotation Zrotation
         End Site
         {
          OFFSET 18.090752 0.000000 0.000000
         }
        }
       }
      }
     }
    }
   }
  }
 }
 JOINT RightHip
 {
  OFFSET -7.826875 0.019532 0.001973
  CHANNELS 3 Yrotation Xrotation Zrotation
  JOINT RightKnee
  {
   OFFSET 0.000000 -40.546152 -0.001885
   CHANNELS 3 Yrotation Xrotation Zrotation
   JOINT RightAnkle
   {
    OFFSET 0.000000 -39.417092 -0.003189
    CHANNELS 3 Yrotation Xrotation Zrotation
    JOINT RightToe
    {
     OFFSET 0.000000 -7.579396 17.243563
     CHANNELS 3 Yrotation Xrotation Zrotation
     End Site
     {
      OFFSET 0.000000 -1.500329 6.694466
     }
    }
   }
  }
 }
 JOINT LeftHip
 {
  OFFSET 7.826875 0.019532 0.001973
  CHANNELS 3 Yrotation Xrotation Zrotation
  JOINT LeftKnee
  {
   OFFSET 0.000000 -40.546152 -0.001885
   CHANNELS 3 Yrotation Xrotation Zrotation
   JOINT LeftAnkle
   {
    OFFSET 0.000000 -39.417092 -0.003189
    CHANNELS 3 Yrotation Xrotation Zrotation
    JOINT LeftToe
    {
     OFFSET 0.000000 -7.579396 17.243563
     CHANNELS 3 Yrotation Xrotation Zrotation
     End Site
     {
      OFFSET 0.000000 -1.500329 6.694466
     }
    }
   }
  }
 }
}
MOTION
Frames: 8
Frame Time: 0.008333
0.000000 87.345680 0.000000 0.000000 -5.767889 0.000000 0.000000 11.653876 0.000000 0.000000 -5.885988 0.000000 0.000000 -0.000000 0.000000 0.000000 -0.000000 0.000000 0.000000 12.528808 0.000000 0.000000 0.711711 0.000000 0.000000 -0.000000 0.000000 0.000000 -0.000000 0.000000 2.309063 -0.000000 0.000000 -2.309063 -0.000000 -0.000000 0.000000 -0.000000 0.000000 0.000000 0.000000 0.000000 -2.309063 0.000000 0.000000 2.309063 -0.000000 0.000000 0.000000 8.520374 0.000000 0.000000 1.905768 0.000000 -0.000000 -4.658254 0.000000 0.000000 -0.000000 0.000000 0.000000 8.520374 0.000000 0.000000 1.905768 0.000000 -0.000000 -4.658254 0.000000 0.000000 -0.000000 0.000000
-21.969453 88.217436 3.819324 -139.897157 -7.619339 -0.668302 0.873589 4.048704 1.433202 0.482698 2.295403 0.795634 0.608476 2.868183 0.997765 0.482698 2.295403 0.795634 -2.377378 24.740798 -0.908733 -2.373364 1.086567 -0.443737 3.593637 2.779739 -0.571924 -9.735175 -0.014298 84.411705 5.382065 -0.990388 1.184316 -2.121226 -2.211156 2.126362 1.542787 2.771072 -1.725230 1.090714 -2.748829 -88.351184 -1.499479 -0.955055 -0.837902 -3.382289 -0.770212 3.245245 -6.279788 9.520539 -9.380799 -4.944986 3.430403 -0.155133 0.815828 -5.198358 6.590163 -0.110045 0.142701 -0.047883 19.208352 7.198416 12.897013 13.040873 0.420193 -0.143819 -7.818169 -1.388200 -9.948760 0.030534 -0.005938 0.006745
-21.846313 88.220140 3.802736 -139.841595 -7.532390 -0.699298 0.867959 4.054449 1.485090 0.478186 2.301886 0.812296 0.602955 2.876273 1.018578 0.478186 2.301886 0.812296 -2.398141 24.714959 -0.945328 -2.387341 1.055465 -0.478627 3.599496 2.772086 -0.586617 -9.732816 -0.039416 84.407956 5.380637 -1.009613 1.185799 -2.118576 -2.222654 2.121719 1.540814 2.765807 -1.731616 1.097239 -2.762113 -88.362892 -1.548779 -0.917628 -0.881698 -3.393153 -0.770699 3.257172 -6.261495 9.416676 -9.254054 -4.944860 3.424494 -0.164953 0.778522 -5.187742 6.517683 -0.101803 0.155827 -0.047381 19.161388 6.954036 12.938755 13.005627 0.559735 -0.085763 -7.833337 -1.373826 -10.019026 0.036047 -0.023838 0.007813
-21.704142 88.223361 3.782126 -139.784376 -7.446884 -0.730352 0.863871 4.063710 1.536397 0.475258 2.309123 0.830634 0.599427 2.885302 1.041497 0.475258 2.309123 0.830634 -2.422030 24.691104 -0.985611 -2.403903 1.026922 -0.516816 3.599253 2.767845 -0.604848 -9.728247 -0.068375 84.402817 5.380553 -1.023736 1.192224 -2.116811 -2.232104 2.119316 1.534698 2.765033 -1.739756 1.095788 -2.782066 -88.372395 -1.598294 -0.876754 -0.927995 -3.406117 -0.767355 3.271190 -6.245492 9.311079 -9.115077 -4.955239 3.414520 -0.176551 0.755548 -5.175906 6.435676 -0.098238 0.173336 -0.048671 19.105471 6.695408 12.986907 12.972409 0.710199 -0.021573 -7.840757 -1.348302 -10.098252 0.037432 -0.045496 0.007906
-21.547184 88.226785 3.758566 -139.720525 -7.364167 -0.762821 0.861644 4.076992 1.586969 0.474054 2.317733 0.850185 0.598065 2.896041 1.065947 0.474054 2.317733 0.850185 -2.450762 24.668279 -1.026801 -2.425541 0.999815 -0.554891 3.590425 2.766405 -0.624361 -9.726808 -0.097026 84.399068 5.388641 -1.032304 1.202222 -2.115586 -2.238361 2.116515 1.522194 2.765909 -1.747575 1.085840 -2.805323 -88.380531 -1.650614 -0.832929 -0.971222 -3.425743 -0.760282 3.282182 -6.241992 9.206390 -8.967135 -4.973442 3.399427 -0.187976 0.745127 -5.161928 6.344285 -0.098657 0.193792 -0.050748 19.034260 6.424619 13.038867 12.945450 0.873380 0.052860 -7.845064 -1.316229 -10.186488 0.035331 -0.069794 0.006799
-21.379841 88.230088 3.733522 -139.641293 -7.284731 -0.795921 0.857193 4.093684 1.637534 0.471792 2.327791 0.870479 0.595390 2.908591 1.091319 0.471792 2.327791 0.870478 -2.483828 24.645642 -1.069468 -2.451566 0.973102 -0.593583 3.576306 2.767264 -0.644865 -9.728801 -0.121345 84.396075 5.407399 -1.034994 1.215142 -2.114359 -2.246120 2.112670 1.508827 2.765721 -1.759523 1.072321 -2.826532 -88.386485 -1.709397 -0.781730 -1.010910 -3.451228 -0.754067 3.293150 -6.256764 9.106574 -8.816145 -4.993822 3.376773 -0.196238 0.739003 -5.144905 6.245321 -0.101438 0.215970 -0.053316 18.949914 6.141825 13.091606 12.915298 1.049028 0.138681 -7.850120 -1.279878 -10.282809 0.030924 -0.096263 0.004992
-21.203911 88.233076 3.706370 -139.542384 -7.210988 -0.843055 0.847468 4.115144 1.704380 0.467682 2.339817 0.891103 0.590412 2.923606 1.117096 0.467681 2.339817 0.891103 -2.521988 24.622056 -1.113847 -2.482737 0.945416 -0.632970 3.560736 2.769512 -0.667038 -9.732849 -0.143344 84.392556 5.433279 -1.035318 1.231464 -2.111004 -2.254711 2.109225 1.496713 2.761498 -1.779123 1.057087 -2.841833 -88.388478 -1.776786 -0.725477 -1.051290 -3.478909 -0.747919 3.308214 -6.286344 9.018939 -8.649956 -5.014766 3.350156 -0.198491 0.731992 -5.159922 6.138911 -0.109178 0.268575 -0.057639 18.857832 5.843236 13.158074 12.881320 1.234754 0.237035 -7.863473 -1.218737 -10.386344 0.021426 -0.142542 0.001215
-21.024953 88.235419 3.681331 -139.438777 -7.140740 -0.872650 0.838680 4.140674 1.758929 0.462861 2.354568 0.911961 0.584556 2.942029 1.143165 0.462860 2.354568 0.911960 -2.563180 24.595484 -1.159586 -2.516866 0.914208 -0.673125 3.551497 2.770378 -0.695963 -9.741752 -0.165415 84.393455 5.461661 -1.042042 1.248842 -2.105375 -2.255626 2.107714 1.495530 2.750980 -1.809888 1.028203 -2.851309 -88.384091 -1.851791 -0.674135 -1.094383 -3.508097 -0.746497 3.328880 -6.310481 8.934559 -8.503227 -5.036900 3.315872 -0.193806 0.715203 -5.143862 6.027260 -0.113059 0.297566 -0.059961 18.778618 5.541327 13.205839 12.846397 1.430187 0.347810 -7.894850 -1.172310 -10.495883 0.014667 -0.176322 -0.001709
